<?xml version="1.0" standalone="no"?>
<!DOCTYPE svg PUBLIC "-//W3C//DTD SVG 1.1//EN" "http://www.w3.org/Graphics/SVG/1.1/DTD/svg11.dtd">
<svg xmlns:xlink="http://www.w3.org/1999/xlink" width="65.498ex" height="40.176ex" style="vertical-align: -19.505ex;" viewBox="0 -8900.1 28200.2 17297.9" xmlns="http://www.w3.org/2000/svg">
<defs>
<path stroke-width="10" id="E1-MJMATHI-50" d="M287 628Q287 635 230 637Q206 637 199 638T192 648Q192 649 194 659Q200 679 203 681T397 683Q587 682 600 680Q664 669 707 631T751 530Q751 453 685 389Q616 321 507 303Q500 302 402 301H307L277 182Q247 66 247 59Q247 55 248 54T255 50T272 48T305 46H336Q342 37 342 35Q342 19 335 5Q330 0 319 0Q316 0 282 1T182 2Q120 2 87 2T51 1Q33 1 33 11Q33 13 36 25Q40 41 44 43T67 46Q94 46 127 49Q141 52 146 61Q149 65 218 339T287 628ZM645 554Q645 567 643 575T634 597T609 619T560 635Q553 636 480 637Q463 637 445 637T416 636T404 636Q391 635 386 627Q384 621 367 550T332 412T314 344Q314 342 395 342H407H430Q542 342 590 392Q617 419 631 471T645 554Z"></path>
<path stroke-width="10" id="E1-MJMATHI-72" d="M21 287Q22 290 23 295T28 317T38 348T53 381T73 411T99 433T132 442Q161 442 183 430T214 408T225 388Q227 382 228 382T236 389Q284 441 347 441H350Q398 441 422 400Q430 381 430 363Q430 333 417 315T391 292T366 288Q346 288 334 299T322 328Q322 376 378 392Q356 405 342 405Q286 405 239 331Q229 315 224 298T190 165Q156 25 151 16Q138 -11 108 -11Q95 -11 87 -5T76 7T74 17Q74 30 114 189T154 366Q154 405 128 405Q107 405 92 377T68 316T57 280Q55 278 41 278H27Q21 284 21 287Z"></path>
<path stroke-width="10" id="E1-MJMATHI-6F" d="M201 -11Q126 -11 80 38T34 156Q34 221 64 279T146 380Q222 441 301 441Q333 441 341 440Q354 437 367 433T402 417T438 387T464 338T476 268Q476 161 390 75T201 -11ZM121 120Q121 70 147 48T206 26Q250 26 289 58T351 142Q360 163 374 216T388 308Q388 352 370 375Q346 405 306 405Q243 405 195 347Q158 303 140 230T121 120Z"></path>
<path stroke-width="10" id="E1-MJMATHI-63" d="M34 159Q34 268 120 355T306 442Q362 442 394 418T427 355Q427 326 408 306T360 285Q341 285 330 295T319 325T330 359T352 380T366 386H367Q367 388 361 392T340 400T306 404Q276 404 249 390Q228 381 206 359Q162 315 142 235T121 119Q121 73 147 50Q169 26 205 26H209Q321 26 394 111Q403 121 406 121Q410 121 419 112T429 98T420 83T391 55T346 25T282 0T202 -11Q127 -11 81 37T34 159Z"></path>
<path stroke-width="10" id="E1-MJMAIN-3A" d="M78 370Q78 394 95 412T138 430Q162 430 180 414T199 371Q199 346 182 328T139 310T96 327T78 370ZM78 60Q78 84 95 102T138 120Q162 120 180 104T199 61Q199 36 182 18T139 0T96 17T78 60Z"></path>
<path stroke-width="10" id="E1-MJMAIN-3D" d="M56 347Q56 360 70 367H707Q722 359 722 347Q722 336 708 328L390 327H72Q56 332 56 347ZM56 153Q56 168 72 173H708Q722 163 722 153Q722 140 707 133H70Q56 140 56 153Z"></path>
<path stroke-width="10" id="E1-MJMAINI-53" d="M198 460Q198 551 269 628T432 705Q516 705 557 644L583 673Q589 679 593 684T600 693T605 698T609 702T611 704T614 705T618 705H620Q633 705 633 698T605 577T573 459L570 456H554Q546 456 543 456T536 457T532 460T531 466Q531 469 533 489T536 532Q536 573 525 600T496 640T462 657T427 662Q369 662 325 612T281 503Q281 475 290 458T318 430T356 415T407 401T463 383Q506 360 522 323T538 258V244Q538 141 465 60T300 -22Q198 -22 152 41L143 31Q137 25 126 12T106 -10T95 -21L92 -22Q88 -22 86 -22Q81 -22 78 -20T74 -16V-14Q74 -11 132 221Q134 227 155 227H171Q177 221 177 215Q177 212 175 205T171 182T169 147Q171 99 195 70T246 33T306 25Q358 25 400 70T453 169Q455 180 455 203V210Q455 263 414 285Q409 288 347 305Q271 328 254 339Q239 350 224 371Q198 409 198 460Z"></path>
<path stroke-width="10" id="E1-MJMAINI-54" d="M178 437Q173 442 171 446Q171 451 238 654Q243 670 250 677H681H762Q792 677 799 676T806 667Q806 661 788 553T768 444Q768 437 746 437Q727 437 723 445Q723 450 729 492T736 562Q736 589 728 602T693 624Q675 630 622 630H595Q575 630 571 629T564 623Q562 621 492 342T422 59Q422 48 502 46H542Q548 38 548 37T545 19Q541 6 535 0H517Q475 2 357 2Q315 2 279 2T223 2T198 1Q179 1 179 9Q179 14 182 24Q187 42 190 44Q194 46 206 46H232Q289 47 301 49T326 65L395 344Q465 619 465 626Q465 629 462 629Q456 631 411 631Q364 631 336 625T288 597T255 549T224 467Q215 442 210 437H178Z"></path>
<path stroke-width="10" id="E1-MJMAINI-4F" d="M149 237Q149 326 186 413T282 563T412 665T552 704Q619 704 667 678T741 611T777 528T788 444Q788 328 728 219T572 44T377 -22Q275 -22 212 50T149 237ZM688 487Q688 570 650 617T548 665Q467 665 398 592T291 413T253 203Q253 119 290 70T387 20Q440 20 489 52T573 135T635 249T675 373T688 487Z"></path>
<path stroke-width="10" id="E1-MJMAINI-50" d="M62 0Q55 7 55 11Q55 27 62 41Q66 46 96 46Q132 47 143 50T160 62Q162 66 231 344T301 626Q301 627 300 629V631Q294 637 239 637H221Q215 642 215 645T217 664Q221 677 227 683H404H431H502Q578 683 615 675T684 636Q729 595 729 531Q729 462 671 396T524 308Q499 302 404 301H318L288 182Q258 63 258 55T310 46Q341 46 343 40Q345 37 342 21Q337 3 333 1Q330 0 321 0Q317 0 301 0T255 1T190 2Q97 2 72 0H62ZM626 555V562Q626 620 552 635Q546 636 481 637Q466 637 450 637T423 636T412 636Q401 635 398 627Q396 622 361 484Q353 452 344 416T330 362L325 344Q325 342 390 342H427Q523 342 567 386Q596 415 611 473T626 555Z"></path>
<path stroke-width="10" id="E1-MJMAIN-7C" d="M139 -249H137Q125 -249 119 -235V251L120 737Q130 750 139 750Q152 750 159 735V-235Q151 -249 141 -249H139Z"></path>
<path stroke-width="10" id="E1-MJMAINI-4B" d="M668 621Q668 635 645 637Q629 637 629 648Q629 650 632 662T637 677Q640 682 653 682Q657 682 688 681T764 680Q786 680 810 681T839 682Q859 682 859 672Q859 655 852 643Q849 637 839 637Q804 637 768 621T717 595T697 578Q696 578 600 497L505 417L508 408Q543 311 574 227T618 106T632 69Q645 47 688 46H707Q713 38 713 37T710 19Q706 6 700 0H688Q659 2 587 2Q557 2 532 2T492 2T474 1Q458 1 458 10Q458 13 460 23Q464 39 466 42T480 46Q526 46 526 72Q526 75 476 213L427 350Q426 350 396 325T334 272T302 242Q302 241 299 230T290 194T279 150Q257 61 257 55Q257 50 265 49T309 46H337Q343 40 343 38T341 19Q337 6 331 0H316Q280 2 190 2Q158 2 131 2T89 2T70 1Q54 1 54 11Q54 38 66 45L70 46Q75 46 82 46T96 46Q131 47 142 50T159 62Q161 66 230 344T300 626Q300 627 300 629L299 631Q293 637 238 637H220Q214 642 214 645T216 664Q220 677 226 683H239Q307 681 372 681Q386 681 414 681T464 682L487 683H496Q502 677 502 674T500 656Q495 641 491 637H462Q426 636 415 634T399 623Q396 618 358 467L320 314Q321 314 484 452Q510 474 552 509Q625 570 646 590T668 621Z"></path>
<path stroke-width="10" id="E1-MJMAINI-49" d="M235 637Q217 637 213 638T209 649Q209 673 220 682Q222 683 237 683Q278 681 369 681Q404 681 441 682T483 683Q499 683 503 681T508 672Q508 670 505 658T500 643Q498 637 464 637Q425 635 415 633T398 621Q396 618 327 340T257 58T260 52T278 48T322 46Q349 46 349 36Q349 31 346 22Q342 4 337 1Q336 1 334 1T329 0Q325 0 307 0T258 1T190 2Q95 2 67 0H56Q49 7 49 11Q51 38 62 46H91Q129 47 141 50T159 62Q161 66 230 344T300 625Q300 637 235 637Z"></path>
<path stroke-width="10" id="E1-MJMATHI-65" d="M39 168Q39 225 58 272T107 350T174 402T244 433T307 442H310Q355 442 388 420T421 355Q421 265 310 237Q261 224 176 223Q139 223 138 221Q138 219 132 186T125 128Q125 81 146 54T209 26T302 45T394 111Q403 121 406 121Q410 121 419 112T429 98T420 82T390 55T344 24T281 -1T205 -11Q126 -11 83 42T39 168ZM373 353Q367 405 305 405Q272 405 244 391T199 357T170 316T154 280T149 261Q149 260 169 260Q282 260 327 284T373 353Z"></path>
<path stroke-width="10" id="E1-MJMAIN-2192" d="M56 237T56 250T70 270H835Q719 357 692 493Q692 494 692 496T691 499Q691 511 708 511H711Q720 511 723 510T729 506T732 497T735 481T743 456Q765 389 816 336T935 261Q944 258 944 250Q944 244 939 241T915 231T877 212Q836 186 806 152T761 85T740 35T732 4Q730 -6 727 -8T711 -11Q691 -11 691 0Q691 7 696 25Q728 151 835 230H70Q56 237 56 250Z"></path>
<path stroke-width="10" id="E1-MJMAINI-72" d="M81 278Q75 284 75 289Q77 301 89 339Q122 442 183 442Q219 442 241 425T271 384L283 396Q327 442 384 442Q424 442 454 421T484 362Q484 327 464 312T424 296Q407 296 396 305T385 331Q385 352 394 365T414 384T424 390Q409 405 378 405Q322 405 276 315L268 300L234 161Q200 25 196 16Q182 -11 152 -11T120 18Q120 23 159 181Q199 343 199 346Q202 360 202 372Q202 405 182 405Q164 405 150 377T128 316T117 280Q115 278 98 278H81Z"></path>
<path stroke-width="10" id="E1-MJMAINI-6F" d="M103 155Q103 266 185 354T366 442Q435 442 476 394T517 275Q517 169 436 79T255 -11Q194 -11 149 32T103 155ZM187 119Q187 67 209 47T260 26Q290 26 321 47Q354 68 380 113T426 260Q432 291 432 315Q432 361 408 385Q388 405 358 405Q319 405 283 374T227 294Q217 271 202 213T187 119Z"></path>
<path stroke-width="10" id="E1-MJMAINI-63" d="M257 -10Q183 -10 143 37T103 155Q103 257 173 341T337 440Q341 441 348 441H358Q421 441 445 415T469 356Q469 320 450 305T410 289Q392 289 381 299T370 325Q370 362 404 378L414 383Q392 402 365 405Q322 405 285 375T227 294Q217 271 202 213T187 119Q187 27 263 27Q299 27 330 40Q361 51 386 71T424 106T440 121Q444 121 455 110T466 96Q466 92 458 81T432 54T390 24T331 0T257 -10Z"></path>
<path stroke-width="10" id="E1-MJMAIN-28" d="M94 250Q94 319 104 381T127 488T164 576T202 643T244 695T277 729T302 750H315H319Q333 750 333 741Q333 738 316 720T275 667T226 581T184 443T167 250T184 58T225 -81T274 -167T316 -220T333 -241Q333 -250 318 -250H315H302L274 -226Q180 -141 137 -14T94 250Z"></path>
<path stroke-width="10" id="E1-MJMAIN-70" d="M36 -148H50Q89 -148 97 -134V-126Q97 -119 97 -107T97 -77T98 -38T98 6T98 55T98 106Q98 140 98 177T98 243T98 296T97 335T97 351Q94 370 83 376T38 385H20V408Q20 431 22 431L32 432Q42 433 61 434T98 436Q115 437 135 438T165 441T176 442H179V416L180 390L188 397Q247 441 326 441Q407 441 464 377T522 216Q522 115 457 52T310 -11Q242 -11 190 33L182 40V-45V-101Q182 -128 184 -134T195 -145Q216 -148 244 -148H260V-194H252L228 -193Q205 -192 178 -192T140 -191Q37 -191 28 -194H20V-148H36ZM424 218Q424 292 390 347T305 402Q234 402 182 337V98Q222 26 294 26Q345 26 384 80T424 218Z"></path>
<path stroke-width="10" id="E1-MJMAIN-72" d="M36 46H50Q89 46 97 60V68Q97 77 97 91T98 122T98 161T98 203Q98 234 98 269T98 328L97 351Q94 370 83 376T38 385H20V408Q20 431 22 431L32 432Q42 433 60 434T96 436Q112 437 131 438T160 441T171 442H174V373Q213 441 271 441H277Q322 441 343 419T364 373Q364 352 351 337T313 322Q288 322 276 338T263 372Q263 381 265 388T270 400T273 405Q271 407 250 401Q234 393 226 386Q179 341 179 207V154Q179 141 179 127T179 101T180 81T180 66V61Q181 59 183 57T188 54T193 51T200 49T207 48T216 47T225 47T235 46T245 46H276V0H267Q249 3 140 3Q37 3 28 0H20V46H36Z"></path>
<path stroke-width="10" id="E1-MJMAIN-65" d="M28 218Q28 273 48 318T98 391T163 433T229 448Q282 448 320 430T378 380T406 316T415 245Q415 238 408 231H126V216Q126 68 226 36Q246 30 270 30Q312 30 342 62Q359 79 369 104L379 128Q382 131 395 131H398Q415 131 415 121Q415 117 412 108Q393 53 349 21T250 -11Q155 -11 92 58T28 218ZM333 275Q322 403 238 411H236Q228 411 220 410T195 402T166 381T143 340T127 274V267H333V275Z"></path>
<path stroke-width="10" id="E1-MJMAIN-66" d="M273 0Q255 3 146 3Q43 3 34 0H26V46H42Q70 46 91 49Q99 52 103 60Q104 62 104 224V385H33V431H104V497L105 564L107 574Q126 639 171 668T266 704Q267 704 275 704T289 705Q330 702 351 679T372 627Q372 604 358 590T321 576T284 590T270 627Q270 647 288 667H284Q280 668 273 668Q245 668 223 647T189 592Q183 572 182 497V431H293V385H185V225Q185 63 186 61T189 57T194 54T199 51T206 49T213 48T222 47T231 47T241 46T251 46H282V0H273Z"></path>
<path stroke-width="10" id="E1-MJMAIN-69" d="M69 609Q69 637 87 653T131 669Q154 667 171 652T188 609Q188 579 171 564T129 549Q104 549 87 564T69 609ZM247 0Q232 3 143 3Q132 3 106 3T56 1L34 0H26V46H42Q70 46 91 49Q100 53 102 60T104 102V205V293Q104 345 102 359T88 378Q74 385 41 385H30V408Q30 431 32 431L42 432Q52 433 70 434T106 436Q123 437 142 438T171 441T182 442H185V62Q190 52 197 50T232 46H255V0H247Z"></path>
<path stroke-width="10" id="E1-MJMAIN-78" d="M201 0Q189 3 102 3Q26 3 17 0H11V46H25Q48 47 67 52T96 61T121 78T139 96T160 122T180 150L226 210L168 288Q159 301 149 315T133 336T122 351T113 363T107 370T100 376T94 379T88 381T80 383Q74 383 44 385H16V431H23Q59 429 126 429Q219 429 229 431H237V385Q201 381 201 369Q201 367 211 353T239 315T268 274L272 270L297 304Q329 345 329 358Q329 364 327 369T322 376T317 380T310 384L307 385H302V431H309Q324 428 408 428Q487 428 493 431H499V385H492Q443 385 411 368Q394 360 377 341T312 257L296 236L358 151Q424 61 429 57T446 50Q464 46 499 46H516V0H510H502Q494 1 482 1T457 2T432 2T414 3Q403 3 377 3T327 1L304 0H295V46H298Q309 46 320 51T331 63Q331 65 291 120L250 175Q249 174 219 133T185 88Q181 83 181 74Q181 63 188 55T206 46Q208 46 208 23V0H201Z"></path>
<path stroke-width="10" id="E1-MJMAIN-6E" d="M41 46H55Q94 46 102 60V68Q102 77 102 91T102 122T103 161T103 203Q103 234 103 269T102 328V351Q99 370 88 376T43 385H25V408Q25 431 27 431L37 432Q47 433 65 434T102 436Q119 437 138 438T167 441T178 442H181V402Q181 364 182 364T187 369T199 384T218 402T247 421T285 437Q305 442 336 442Q450 438 463 329Q464 322 464 190V104Q464 66 466 59T477 49Q498 46 526 46H542V0H534L510 1Q487 2 460 2T422 3Q319 3 310 0H302V46H318Q379 46 379 62Q380 64 380 200Q379 335 378 343Q372 371 358 385T334 402T308 404Q263 404 229 370Q202 343 195 315T187 232V168V108Q187 78 188 68T191 55T200 49Q221 46 249 46H265V0H257L234 1Q210 2 183 2T145 3Q42 3 33 0H25V46H41Z"></path>
<path stroke-width="10" id="E1-MJMAIN-67" d="M329 409Q373 453 429 453Q459 453 472 434T485 396Q485 382 476 371T449 360Q416 360 412 390Q410 404 415 411Q415 412 416 414V415Q388 412 363 393Q355 388 355 386Q355 385 359 381T368 369T379 351T388 325T392 292Q392 230 343 187T222 143Q172 143 123 171Q112 153 112 133Q112 98 138 81Q147 75 155 75T227 73Q311 72 335 67Q396 58 431 26Q470 -13 470 -72Q470 -139 392 -175Q332 -206 250 -206Q167 -206 107 -175Q29 -140 29 -75Q29 -39 50 -15T92 18L103 24Q67 55 67 108Q67 155 96 193Q52 237 52 292Q52 355 102 398T223 442Q274 442 318 416L329 409ZM299 343Q294 371 273 387T221 404Q192 404 171 388T145 343Q142 326 142 292Q142 248 149 227T179 192Q196 182 222 182Q244 182 260 189T283 207T294 227T299 242Q302 258 302 292T299 343ZM403 -75Q403 -50 389 -34T348 -11T299 -2T245 0H218Q151 0 138 -6Q118 -15 107 -34T95 -74Q95 -84 101 -97T122 -127T170 -155T250 -167Q319 -167 361 -139T403 -75Z"></path>
<path stroke-width="10" id="E1-MJMAIN-29" d="M60 749L64 750Q69 750 74 750H86L114 726Q208 641 251 514T294 250Q294 182 284 119T261 12T224 -76T186 -143T145 -194T113 -227T90 -246Q87 -249 86 -250H74Q66 -250 63 -250T58 -247T55 -238Q56 -237 66 -225Q221 -64 221 250T66 725Q56 737 55 738Q55 746 60 749Z"></path>
<path stroke-width="10" id="E1-MJAMS-25A1" d="M71 0Q59 4 55 16V346L56 676Q64 686 70 689H709Q719 681 722 674V15Q719 10 709 1L390 0H71ZM682 40V649H95V40H682Z"></path>
<path stroke-width="10" id="E1-MJMAIN-74" d="M27 422Q80 426 109 478T141 600V615H181V431H316V385H181V241Q182 116 182 100T189 68Q203 29 238 29Q282 29 292 100Q293 108 293 146V181H333V146V134Q333 57 291 17Q264 -10 221 -10Q187 -10 162 2T124 33T105 68T98 100Q97 107 97 248V385H18V422H27Z"></path>
<path stroke-width="10" id="E1-MJMAIN-61" d="M137 305T115 305T78 320T63 359Q63 394 97 421T218 448Q291 448 336 416T396 340Q401 326 401 309T402 194V124Q402 76 407 58T428 40Q443 40 448 56T453 109V145H493V106Q492 66 490 59Q481 29 455 12T400 -6T353 12T329 54V58L327 55Q325 52 322 49T314 40T302 29T287 17T269 6T247 -2T221 -8T190 -11Q130 -11 82 20T34 107Q34 128 41 147T68 188T116 225T194 253T304 268H318V290Q318 324 312 340Q290 411 215 411Q197 411 181 410T156 406T148 403Q170 388 170 359Q170 334 154 320ZM126 106Q126 75 150 51T209 26Q247 26 276 49T315 109Q317 116 318 175Q318 233 317 233Q309 233 296 232T251 223T193 203T147 166T126 106Z"></path>
<path stroke-width="10" id="E1-MJMAIN-6C" d="M42 46H56Q95 46 103 60V68Q103 77 103 91T103 124T104 167T104 217T104 272T104 329Q104 366 104 407T104 482T104 542T103 586T103 603Q100 622 89 628T44 637H26V660Q26 683 28 683L38 684Q48 685 67 686T104 688Q121 689 141 690T171 693T182 694H185V379Q185 62 186 60Q190 52 198 49Q219 46 247 46H263V0H255L232 1Q209 2 183 2T145 3T107 3T57 1L34 0H26V46H42Z"></path>
<path stroke-width="10" id="E1-MJMAIN-63" d="M370 305T349 305T313 320T297 358Q297 381 312 396Q317 401 317 402T307 404Q281 408 258 408Q209 408 178 376Q131 329 131 219Q131 137 162 90Q203 29 272 29Q313 29 338 55T374 117Q376 125 379 127T395 129H409Q415 123 415 120Q415 116 411 104T395 71T366 33T318 2T249 -11Q163 -11 99 53T34 214Q34 318 99 383T250 448T370 421T404 357Q404 334 387 320Z"></path>
<path stroke-width="10" id="E1-MJMAIN-68" d="M41 46H55Q94 46 102 60V68Q102 77 102 91T102 124T102 167T103 217T103 272T103 329Q103 366 103 407T103 482T102 542T102 586T102 603Q99 622 88 628T43 637H25V660Q25 683 27 683L37 684Q47 685 66 686T103 688Q120 689 140 690T170 693T181 694H184V367Q244 442 328 442Q451 442 463 329Q464 322 464 190V104Q464 66 466 59T477 49Q498 46 526 46H542V0H534L510 1Q487 2 460 2T422 3Q319 3 310 0H302V46H318Q379 46 379 62Q380 64 380 200Q379 335 378 343Q372 371 358 385T334 402T308 404Q263 404 229 370Q202 343 195 315T187 232V168V108Q187 78 188 68T191 55T200 49Q221 46 249 46H265V0H257L234 1Q210 2 183 2T145 3Q42 3 33 0H25V46H41Z"></path>
<path stroke-width="10" id="E1-MJMAIN-6F" d="M28 214Q28 309 93 378T250 448Q340 448 405 380T471 215Q471 120 407 55T250 -10Q153 -10 91 57T28 214ZM250 30Q372 30 372 193V225V250Q372 272 371 288T364 326T348 362T317 390T268 410Q263 411 252 411Q222 411 195 399Q152 377 139 338T126 246V226Q126 130 145 91Q177 30 250 30Z"></path>
<path stroke-width="10" id="E1-MJMAIN-2293" d="M83 0Q79 0 76 1T71 3T67 6T65 9T63 13T61 16V301L62 585Q70 595 76 598H592Q602 590 605 583V15Q598 2 587 0Q583 0 580 1T575 3T571 6T569 9T567 13T565 16V558H101V15Q94 2 83 0Z"></path>
<path stroke-width="10" id="E1-MJMAIN-64" d="M376 495Q376 511 376 535T377 568Q377 613 367 624T316 637H298V660Q298 683 300 683L310 684Q320 685 339 686T376 688Q393 689 413 690T443 693T454 694H457V390Q457 84 458 81Q461 61 472 55T517 46H535V0Q533 0 459 -5T380 -11H373V44L365 37Q307 -11 235 -11Q158 -11 96 50T34 215Q34 315 97 378T244 442Q319 442 376 393V495ZM373 342Q328 405 260 405Q211 405 173 369Q146 341 139 305T131 211Q131 155 138 120T173 59Q203 26 251 26Q322 26 373 103V342Z"></path>
<path stroke-width="10" id="E1-MJMAIN-6D" d="M41 46H55Q94 46 102 60V68Q102 77 102 91T102 122T103 161T103 203Q103 234 103 269T102 328V351Q99 370 88 376T43 385H25V408Q25 431 27 431L37 432Q47 433 65 434T102 436Q119 437 138 438T167 441T178 442H181V402Q181 364 182 364T187 369T199 384T218 402T247 421T285 437Q305 442 336 442Q351 442 364 440T387 434T406 426T421 417T432 406T441 395T448 384T452 374T455 366L457 361L460 365Q463 369 466 373T475 384T488 397T503 410T523 422T546 432T572 439T603 442Q729 442 740 329Q741 322 741 190V104Q741 66 743 59T754 49Q775 46 803 46H819V0H811L788 1Q764 2 737 2T699 3Q596 3 587 0H579V46H595Q656 46 656 62Q657 64 657 200Q656 335 655 343Q649 371 635 385T611 402T585 404Q540 404 506 370Q479 343 472 315T464 232V168V108Q464 78 465 68T468 55T477 49Q498 46 526 46H542V0H534L510 1Q487 2 460 2T422 3Q319 3 310 0H302V46H318Q379 46 379 62Q380 64 380 200Q379 335 378 343Q372 371 358 385T334 402T308 404Q263 404 229 370Q202 343 195 315T187 232V168V108Q187 78 188 68T191 55T200 49Q221 46 249 46H265V0H257L234 1Q210 2 183 2T145 3Q42 3 33 0H25V46H41Z"></path>
<path stroke-width="10" id="E1-MJMAIN-73" d="M295 316Q295 356 268 385T190 414Q154 414 128 401Q98 382 98 349Q97 344 98 336T114 312T157 287Q175 282 201 278T245 269T277 256Q294 248 310 236T342 195T359 133Q359 71 321 31T198 -10H190Q138 -10 94 26L86 19L77 10Q71 4 65 -1L54 -11H46H42Q39 -11 33 -5V74V132Q33 153 35 157T45 162H54Q66 162 70 158T75 146T82 119T101 77Q136 26 198 26Q295 26 295 104Q295 133 277 151Q257 175 194 187T111 210Q75 227 54 256T33 318Q33 357 50 384T93 424T143 442T187 447H198Q238 447 268 432L283 424L292 431Q302 440 314 448H322H326Q329 448 335 442V310L329 304H301Q295 310 295 316Z"></path>
<path stroke-width="10" id="E1-MJMAIN-76" d="M338 431Q344 429 422 429Q479 429 503 431H508V385H497Q439 381 423 345Q421 341 356 172T288 -2Q283 -11 263 -11Q244 -11 239 -2Q99 359 98 364Q93 378 82 381T43 385H19V431H25L33 430Q41 430 53 430T79 430T104 429T122 428Q217 428 232 431H240V385H226Q187 384 184 370Q184 366 235 234L286 102L377 341V349Q377 363 367 372T349 383T335 385H331V431H338Z"></path>
<path stroke-width="10" id="E1-MJMAIN-5B" d="M118 -250V750H255V710H158V-210H255V-250H118Z"></path>
<path stroke-width="10" id="E1-MJMAIN-7B" d="M434 -231Q434 -244 428 -250H410Q281 -250 230 -184Q225 -177 222 -172T217 -161T213 -148T211 -133T210 -111T209 -84T209 -47T209 0Q209 21 209 53Q208 142 204 153Q203 154 203 155Q189 191 153 211T82 231Q71 231 68 234T65 250T68 266T82 269Q116 269 152 289T203 345Q208 356 208 377T209 529V579Q209 634 215 656T244 698Q270 724 324 740Q361 748 377 749Q379 749 390 749T408 750H428Q434 744 434 732Q434 719 431 716Q429 713 415 713Q362 710 332 689T296 647Q291 634 291 499V417Q291 370 288 353T271 314Q240 271 184 255L170 250L184 245Q202 239 220 230T262 196T290 137Q291 131 291 1Q291 -134 296 -147Q306 -174 339 -192T415 -213Q429 -213 431 -216Q434 -219 434 -231Z"></path>
<path stroke-width="10" id="E1-MJMATHI-58" d="M42 0H40Q26 0 26 11Q26 15 29 27Q33 41 36 43T55 46Q141 49 190 98Q200 108 306 224T411 342Q302 620 297 625Q288 636 234 637H206Q200 643 200 645T202 664Q206 677 212 683H226Q260 681 347 681Q380 681 408 681T453 682T473 682Q490 682 490 671Q490 670 488 658Q484 643 481 640T465 637Q434 634 411 620L488 426L541 485Q646 598 646 610Q646 628 622 635Q617 635 609 637Q594 637 594 648Q594 650 596 664Q600 677 606 683H618Q619 683 643 683T697 681T738 680Q828 680 837 683H845Q852 676 852 672Q850 647 840 637H824Q790 636 763 628T722 611T698 593L687 584Q687 585 592 480L505 384Q505 383 536 304T601 142T638 56Q648 47 699 46Q734 46 734 37Q734 35 732 23Q728 7 725 4T711 1Q708 1 678 1T589 2Q528 2 496 2T461 1Q444 1 444 10Q444 11 446 25Q448 35 450 39T455 44T464 46T480 47T506 54Q523 62 523 64Q522 64 476 181L429 299Q241 95 236 84Q232 76 232 72Q232 53 261 47Q262 47 267 47T273 46Q276 46 277 46T280 45T283 42T284 35Q284 26 282 19Q279 6 276 4T261 1Q258 1 243 1T201 2T142 2Q64 2 42 0Z"></path>
<path stroke-width="10" id="E1-MJMAIN-7D" d="M65 731Q65 745 68 747T88 750Q171 750 216 725T279 670Q288 649 289 635T291 501Q292 362 293 357Q306 312 345 291T417 269Q428 269 431 266T434 250T431 234T417 231Q380 231 345 210T298 157Q293 143 292 121T291 -28V-79Q291 -134 285 -156T256 -198Q202 -250 89 -250Q71 -250 68 -247T65 -230Q65 -224 65 -223T66 -218T69 -214T77 -213Q91 -213 108 -210T146 -200T183 -177T207 -139Q208 -134 209 3L210 139Q223 196 280 230Q315 247 330 250Q305 257 280 270Q225 304 212 352L210 362L209 498Q208 635 207 640Q195 680 154 696T77 713Q68 713 67 716T65 731Z"></path>
<path stroke-width="10" id="E1-MJMAIN-5D" d="M22 710V750H159V-250H22V-210H119V710H22Z"></path>
<path stroke-width="10" id="E1-MJMAIN-2216" d="M56 731Q56 740 62 745T75 750Q85 750 92 740Q96 733 270 255T444 -231Q444 -239 438 -244T424 -250Q414 -250 407 -240Q404 -236 230 242T56 731Z"></path>
<path stroke-width="10" id="E1-MJMAIN-3B" d="M78 370Q78 394 95 412T138 430Q162 430 180 414T199 371Q199 346 182 328T139 310T96 327T78 370ZM78 60Q78 85 94 103T137 121Q202 121 202 8Q202 -44 183 -94T144 -169T118 -194Q115 -194 106 -186T95 -174Q94 -171 107 -155T137 -107T160 -38Q161 -32 162 -22T165 -4T165 4Q165 5 161 4T142 0Q110 0 94 18T78 60Z"></path>
<path stroke-width="10" id="E1-MJMAIN-71" d="M33 218Q33 308 95 374T236 441H246Q330 441 381 372L387 364Q388 364 404 403L420 442H457V156Q457 -132 458 -134Q462 -142 470 -145Q491 -148 519 -148H535V-194H527L504 -193Q480 -192 453 -192T415 -191Q312 -191 303 -194H295V-148H311Q339 -148 360 -145Q369 -141 371 -135T373 -106V-41V49Q313 -11 236 -11Q154 -11 94 53T33 218ZM376 300Q346 389 278 401Q275 401 269 401T261 402Q211 400 171 350T131 214Q131 137 165 82T253 27Q296 27 328 54T376 118V300Z"></path>
<path stroke-width="10" id="E1-MJMAIN-75" d="M383 58Q327 -10 256 -10H249Q124 -10 105 89Q104 96 103 226Q102 335 102 348T96 369Q86 385 36 385H25V408Q25 431 27 431L38 432Q48 433 67 434T105 436Q122 437 142 438T172 441T184 442H187V261Q188 77 190 64Q193 49 204 40Q224 26 264 26Q290 26 311 35T343 58T363 90T375 120T379 144Q379 145 379 161T380 201T380 248V315Q380 361 370 372T320 385H302V431Q304 431 378 436T457 442H464V264Q464 84 465 81Q468 61 479 55T524 46H542V0Q540 0 467 -5T390 -11H383V58Z"></path>
<path stroke-width="10" id="E1-MJMATHI-62" d="M73 647Q73 657 77 670T89 683Q90 683 161 688T234 694Q246 694 246 685T212 542Q204 508 195 472T180 418L176 399Q176 396 182 402Q231 442 283 442Q345 442 383 396T422 280Q422 169 343 79T173 -11Q123 -11 82 27T40 150V159Q40 180 48 217T97 414Q147 611 147 623T109 637Q104 637 101 637H96Q86 637 83 637T76 640T73 647ZM336 325V331Q336 405 275 405Q258 405 240 397T207 376T181 352T163 330L157 322L136 236Q114 150 114 114Q114 66 138 42Q154 26 178 26Q211 26 245 58Q270 81 285 114T318 219Q336 291 336 325Z"></path>
<path stroke-width="10" id="E1-MJMAIN-62" d="M307 -11Q234 -11 168 55L158 37Q156 34 153 28T147 17T143 10L138 1L118 0H98V298Q98 599 97 603Q94 622 83 628T38 637H20V660Q20 683 22 683L32 684Q42 685 61 686T98 688Q115 689 135 690T165 693T176 694H179V543Q179 391 180 391L183 394Q186 397 192 401T207 411T228 421T254 431T286 439T323 442Q401 442 461 379T522 216Q522 115 458 52T307 -11ZM182 98Q182 97 187 90T196 79T206 67T218 55T233 44T250 35T271 29T295 26Q330 26 363 46T412 113Q424 148 424 212Q424 287 412 323Q385 405 300 405Q270 405 239 390T188 347L182 339V98Z"></path>
<path stroke-width="10" id="E1-MJMAIN-25B9" d="M26 489Q33 505 43 505Q51 505 260 385Q464 266 471 259Q473 257 473 250Q473 242 469 239Q459 231 260 115Q51 -5 43 -5Q39 -5 35 -1T28 7L26 11V489ZM412 250L67 450Q66 450 66 250T67 50Q69 51 240 150T412 250Z"></path>
<path stroke-width="10" id="E1-MJMAIN-25B3" d="M75 0L72 2Q69 3 67 5T62 11T59 20Q59 24 62 30Q65 37 245 370T428 707Q428 708 430 710T436 714T444 716Q451 716 455 712Q459 710 644 368L828 27V20Q828 7 814 0H75ZM610 347L444 653Q443 653 278 347T113 40H775Q775 42 610 347Z"></path>
</defs>
<g stroke="currentColor" fill="currentColor" stroke-width="0" transform="matrix(1 0 0 -1 0 0)">
<g transform="translate(167,0)">
<g transform="translate(-11,0)">
<g transform="translate(0,7979)">
 <use xlink:href="#E1-MJMATHI-50" x="0" y="0"></use>
 <use xlink:href="#E1-MJMATHI-72" x="756" y="0"></use>
 <use xlink:href="#E1-MJMATHI-6F" x="1212" y="0"></use>
 <use xlink:href="#E1-MJMATHI-63" x="1702" y="0"></use>
</g>
</g>
<g transform="translate(3129,0)">
<g transform="translate(0,7979)">
 <use xlink:href="#E1-MJMAIN-3A"></use>
 <use xlink:href="#E1-MJMAIN-3A" x="283" y="0"></use>
 <use xlink:href="#E1-MJMAIN-3D" x="566" y="0"></use>
</g>
 <use xlink:href="#E1-MJMAIN-7C" x="533" y="6579"></use>
 <use xlink:href="#E1-MJMAIN-7C" x="533" y="5120"></use>
 <use xlink:href="#E1-MJMAIN-7C" x="533" y="3660"></use>
 <use xlink:href="#E1-MJMAIN-7C" x="533" y="2200"></use>
 <use xlink:href="#E1-MJMAIN-7C" x="533" y="740"></use>
 <use xlink:href="#E1-MJMAIN-7C" x="533" y="-720"></use>
 <use xlink:href="#E1-MJMAIN-7C" x="533" y="-2180"></use>
 <use xlink:href="#E1-MJMAIN-7C" x="533" y="-3640"></use>
 <use xlink:href="#E1-MJMAIN-7C" x="533" y="-5100"></use>
 <use xlink:href="#E1-MJMAIN-7C" x="533" y="-6560"></use>
 <use xlink:href="#E1-MJMAIN-7C" x="533" y="-8020"></use>
</g>
<g transform="translate(5478,0)">
<g transform="translate(0,7979)">
 <use xlink:href="#E1-MJMAINI-53"></use>
 <use xlink:href="#E1-MJMAINI-54" x="567" y="0"></use>
 <use xlink:href="#E1-MJMAINI-4F" x="1288" y="0"></use>
 <use xlink:href="#E1-MJMAINI-50" x="2060" y="0"></use>
</g>
<g transform="translate(0,6579)">
 <use xlink:href="#E1-MJMAINI-53"></use>
 <use xlink:href="#E1-MJMAINI-4B" x="567" y="0"></use>
 <use xlink:href="#E1-MJMAINI-49" x="1341" y="0"></use>
 <use xlink:href="#E1-MJMAINI-50" x="1732" y="0"></use>
</g>
<g transform="translate(0,5120)">
 <use xlink:href="#E1-MJMATHI-65" x="0" y="0"></use>
 <use xlink:href="#E1-MJMAIN-2192" x="748" y="0"></use>
<g transform="translate(2031,0)">
 <use xlink:href="#E1-MJMAINI-50"></use>
 <use xlink:href="#E1-MJMAINI-72" x="683" y="0"></use>
 <use xlink:href="#E1-MJMAINI-6F" x="1110" y="0"></use>
 <use xlink:href="#E1-MJMAINI-63" x="1626" y="0"></use>
</g>
</g>
<g transform="translate(0,3660)">
 <use xlink:href="#E1-MJMAINI-50"></use>
 <use xlink:href="#E1-MJMAINI-72" x="683" y="0"></use>
 <use xlink:href="#E1-MJMAINI-6F" x="1110" y="0"></use>
 <use xlink:href="#E1-MJMAINI-63" x="1626" y="0"></use>
 <use xlink:href="#E1-MJAMS-25A1" x="2368" y="0"></use>
<g transform="translate(3429,0)">
 <use xlink:href="#E1-MJMAINI-50"></use>
 <use xlink:href="#E1-MJMAINI-72" x="683" y="0"></use>
 <use xlink:href="#E1-MJMAINI-6F" x="1110" y="0"></use>
 <use xlink:href="#E1-MJMAINI-63" x="1626" y="0"></use>
</g>
</g>
<g transform="translate(0,2200)">
 <use xlink:href="#E1-MJMAINI-50"></use>
 <use xlink:href="#E1-MJMAINI-72" x="683" y="0"></use>
 <use xlink:href="#E1-MJMAINI-6F" x="1110" y="0"></use>
 <use xlink:href="#E1-MJMAINI-63" x="1626" y="0"></use>
 <use xlink:href="#E1-MJMAIN-2293" x="2591" y="0"></use>
<g transform="translate(3763,0)">
 <use xlink:href="#E1-MJMAINI-50"></use>
 <use xlink:href="#E1-MJMAINI-72" x="683" y="0"></use>
 <use xlink:href="#E1-MJMAINI-6F" x="1110" y="0"></use>
 <use xlink:href="#E1-MJMAINI-63" x="1626" y="0"></use>
</g>
</g>
<g transform="translate(0,740)">
 <use xlink:href="#E1-MJMAINI-50"></use>
 <use xlink:href="#E1-MJMAINI-72" x="683" y="0"></use>
 <use xlink:href="#E1-MJMAINI-6F" x="1110" y="0"></use>
 <use xlink:href="#E1-MJMAINI-63" x="1626" y="0"></use>
 <use xlink:href="#E1-MJMAIN-7C" x="2368" y="0"></use>
 <use xlink:href="#E1-MJMAIN-7C" x="2651" y="0"></use>
 <use xlink:href="#E1-MJMAIN-7C" x="2934" y="0"></use>
<g transform="translate(3495,0)">
 <use xlink:href="#E1-MJMAINI-50"></use>
 <use xlink:href="#E1-MJMAINI-72" x="683" y="0"></use>
 <use xlink:href="#E1-MJMAINI-6F" x="1110" y="0"></use>
 <use xlink:href="#E1-MJMAINI-63" x="1626" y="0"></use>
</g>
</g>
<g transform="translate(0,-720)">
 <use xlink:href="#E1-MJMAINI-50"></use>
 <use xlink:href="#E1-MJMAINI-72" x="683" y="0"></use>
 <use xlink:href="#E1-MJMAINI-6F" x="1110" y="0"></use>
 <use xlink:href="#E1-MJMAINI-63" x="1626" y="0"></use>
 <use xlink:href="#E1-MJMAIN-7C" x="2368" y="0"></use>
 <use xlink:href="#E1-MJMAIN-5B" x="2651" y="0"></use>
 <use xlink:href="#E1-MJMAIN-7B" x="2934" y="0"></use>
 <use xlink:href="#E1-MJMATHI-58" x="3439" y="0"></use>
 <use xlink:href="#E1-MJMAIN-7D" x="4296" y="0"></use>
 <use xlink:href="#E1-MJMAIN-5D" x="4801" y="0"></use>
 <use xlink:href="#E1-MJMAIN-7C" x="5084" y="0"></use>
<g transform="translate(5645,0)">
 <use xlink:href="#E1-MJMAINI-50"></use>
 <use xlink:href="#E1-MJMAINI-72" x="683" y="0"></use>
 <use xlink:href="#E1-MJMAINI-6F" x="1110" y="0"></use>
 <use xlink:href="#E1-MJMAINI-63" x="1626" y="0"></use>
</g>
</g>
<g transform="translate(0,-2180)">
 <use xlink:href="#E1-MJMAINI-50"></use>
 <use xlink:href="#E1-MJMAINI-72" x="683" y="0"></use>
 <use xlink:href="#E1-MJMAINI-6F" x="1110" y="0"></use>
 <use xlink:href="#E1-MJMAINI-63" x="1626" y="0"></use>
 <use xlink:href="#E1-MJMAIN-2216" x="2313" y="0"></use>
 <use xlink:href="#E1-MJMATHI-58" x="3040" y="0"></use>
</g>
<g transform="translate(0,-3640)">
 <use xlink:href="#E1-MJMAINI-50"></use>
 <use xlink:href="#E1-MJMAINI-72" x="683" y="0"></use>
 <use xlink:href="#E1-MJMAINI-6F" x="1110" y="0"></use>
 <use xlink:href="#E1-MJMAINI-63" x="1626" y="0"></use>
 <use xlink:href="#E1-MJMAIN-3B" x="2091" y="0"></use>
<g transform="translate(2540,0)">
 <use xlink:href="#E1-MJMAINI-50"></use>
 <use xlink:href="#E1-MJMAINI-72" x="683" y="0"></use>
 <use xlink:href="#E1-MJMAINI-6F" x="1110" y="0"></use>
 <use xlink:href="#E1-MJMAINI-63" x="1626" y="0"></use>
</g>
</g>
<g transform="translate(0,-5100)">
 <use xlink:href="#E1-MJMAIN-69" x="0" y="0"></use>
 <use xlink:href="#E1-MJMAIN-66" x="283" y="0"></use>
 <use xlink:href="#E1-MJMATHI-62" x="937" y="0"></use>
<g transform="translate(1649,0)">
 <use xlink:href="#E1-MJMAIN-74" x="0" y="0"></use>
 <use xlink:href="#E1-MJMAIN-68" x="394" y="0"></use>
 <use xlink:href="#E1-MJMAIN-65" x="955" y="0"></use>
 <use xlink:href="#E1-MJMAIN-6E" x="1404" y="0"></use>
</g>
<g transform="translate(3892,0)">
 <use xlink:href="#E1-MJMAINI-50"></use>
 <use xlink:href="#E1-MJMAINI-72" x="683" y="0"></use>
 <use xlink:href="#E1-MJMAINI-6F" x="1110" y="0"></use>
 <use xlink:href="#E1-MJMAINI-63" x="1626" y="0"></use>
</g>
<g transform="translate(6261,0)">
 <use xlink:href="#E1-MJMAIN-65" x="0" y="0"></use>
 <use xlink:href="#E1-MJMAIN-6C" x="449" y="0"></use>
 <use xlink:href="#E1-MJMAIN-73" x="732" y="0"></use>
 <use xlink:href="#E1-MJMAIN-65" x="1131" y="0"></use>
</g>
 <use xlink:href="#E1-MJMATHI-50" x="8118" y="0"></use>
 <use xlink:href="#E1-MJMATHI-72" x="8874" y="0"></use>
 <use xlink:href="#E1-MJMATHI-6F" x="9330" y="0"></use>
 <use xlink:href="#E1-MJMATHI-63" x="9820" y="0"></use>
</g>
<g transform="translate(0,-6560)">
 <use xlink:href="#E1-MJMAINI-50"></use>
 <use xlink:href="#E1-MJMAINI-72" x="683" y="0"></use>
 <use xlink:href="#E1-MJMAINI-6F" x="1110" y="0"></use>
 <use xlink:href="#E1-MJMAINI-63" x="1626" y="0"></use>
 <use xlink:href="#E1-MJMAIN-25B9" x="2591" y="0"></use>
<g transform="translate(3596,0)">
 <use xlink:href="#E1-MJMAINI-50"></use>
 <use xlink:href="#E1-MJMAINI-72" x="683" y="0"></use>
 <use xlink:href="#E1-MJMAINI-6F" x="1110" y="0"></use>
 <use xlink:href="#E1-MJMAINI-63" x="1626" y="0"></use>
</g>
</g>
<g transform="translate(0,-8020)">
 <use xlink:href="#E1-MJMAINI-50"></use>
 <use xlink:href="#E1-MJMAINI-72" x="683" y="0"></use>
 <use xlink:href="#E1-MJMAINI-6F" x="1110" y="0"></use>
 <use xlink:href="#E1-MJMAINI-63" x="1626" y="0"></use>
 <use xlink:href="#E1-MJMAIN-25B3" x="2368" y="0"></use>
<g transform="translate(3540,0)">
 <use xlink:href="#E1-MJMAINI-50"></use>
 <use xlink:href="#E1-MJMAINI-72" x="683" y="0"></use>
 <use xlink:href="#E1-MJMAINI-6F" x="1110" y="0"></use>
 <use xlink:href="#E1-MJMAINI-63" x="1626" y="0"></use>
</g>
</g>
</g>
<g transform="translate(16737,0)">
<g transform="translate(0,5120)">
 <use xlink:href="#E1-MJMAIN-28" x="0" y="0"></use>
<g transform="translate(394,0)">
 <use xlink:href="#E1-MJMAIN-70"></use>
 <use xlink:href="#E1-MJMAIN-72" x="561" y="0"></use>
 <use xlink:href="#E1-MJMAIN-65" x="958" y="0"></use>
 <use xlink:href="#E1-MJMAIN-66" x="1407" y="0"></use>
 <use xlink:href="#E1-MJMAIN-69" x="1718" y="0"></use>
 <use xlink:href="#E1-MJMAIN-78" x="2001" y="0"></use>
 <use xlink:href="#E1-MJMAIN-69" x="2534" y="0"></use>
 <use xlink:href="#E1-MJMAIN-6E" x="2817" y="0"></use>
 <use xlink:href="#E1-MJMAIN-67" x="3378" y="0"></use>
</g>
 <use xlink:href="#E1-MJMAIN-29" x="4277" y="0"></use>
</g>
<g transform="translate(0,3660)">
 <use xlink:href="#E1-MJMAIN-28" x="0" y="0"></use>
<g transform="translate(394,0)">
 <use xlink:href="#E1-MJMAIN-65"></use>
 <use xlink:href="#E1-MJMAIN-78" x="449" y="0"></use>
 <use xlink:href="#E1-MJMAIN-74" x="982" y="0"></use>
 <use xlink:href="#E1-MJMAIN-65" x="1376" y="0"></use>
 <use xlink:href="#E1-MJMAIN-72" x="1825" y="0"></use>
 <use xlink:href="#E1-MJMAIN-6E" x="2222" y="0"></use>
 <use xlink:href="#E1-MJMAIN-61" x="2783" y="0"></use>
 <use xlink:href="#E1-MJMAIN-6C" x="3288" y="0"></use>
</g>
<g transform="translate(4242,0)">
 <use xlink:href="#E1-MJMAIN-63"></use>
 <use xlink:href="#E1-MJMAIN-68" x="449" y="0"></use>
 <use xlink:href="#E1-MJMAIN-6F" x="1010" y="0"></use>
 <use xlink:href="#E1-MJMAIN-69" x="1515" y="0"></use>
 <use xlink:href="#E1-MJMAIN-63" x="1798" y="0"></use>
 <use xlink:href="#E1-MJMAIN-65" x="2247" y="0"></use>
</g>
 <use xlink:href="#E1-MJMAIN-29" x="6938" y="0"></use>
</g>
<g transform="translate(0,2200)">
 <use xlink:href="#E1-MJMAIN-28" x="0" y="0"></use>
<g transform="translate(394,0)">
 <use xlink:href="#E1-MJMAIN-6E"></use>
 <use xlink:href="#E1-MJMAIN-6F" x="561" y="0"></use>
 <use xlink:href="#E1-MJMAIN-6E" x="1066" y="0"></use>
 <use xlink:href="#E1-MJMAIN-64" x="1627" y="0"></use>
 <use xlink:href="#E1-MJMAIN-65" x="2188" y="0"></use>
 <use xlink:href="#E1-MJMAIN-74" x="2637" y="0"></use>
 <use xlink:href="#E1-MJMAIN-65" x="3031" y="0"></use>
 <use xlink:href="#E1-MJMAIN-72" x="3480" y="0"></use>
 <use xlink:href="#E1-MJMAIN-6D" x="3877" y="0"></use>
 <use xlink:href="#E1-MJMAIN-69" x="4715" y="0"></use>
 <use xlink:href="#E1-MJMAIN-6E" x="4998" y="0"></use>
 <use xlink:href="#E1-MJMAIN-69" x="5559" y="0"></use>
 <use xlink:href="#E1-MJMAIN-73" x="5842" y="0"></use>
 <use xlink:href="#E1-MJMAIN-74" x="6241" y="0"></use>
 <use xlink:href="#E1-MJMAIN-69" x="6635" y="0"></use>
 <use xlink:href="#E1-MJMAIN-63" x="6918" y="0"></use>
</g>
<g transform="translate(8038,0)">
 <use xlink:href="#E1-MJMAIN-63"></use>
 <use xlink:href="#E1-MJMAIN-68" x="449" y="0"></use>
 <use xlink:href="#E1-MJMAIN-6F" x="1010" y="0"></use>
 <use xlink:href="#E1-MJMAIN-69" x="1515" y="0"></use>
 <use xlink:href="#E1-MJMAIN-63" x="1798" y="0"></use>
 <use xlink:href="#E1-MJMAIN-65" x="2247" y="0"></use>
</g>
 <use xlink:href="#E1-MJMAIN-29" x="10734" y="0"></use>
</g>
<g transform="translate(0,740)">
 <use xlink:href="#E1-MJMAIN-28" x="0" y="0"></use>
<g transform="translate(394,0)">
 <use xlink:href="#E1-MJMAIN-69"></use>
 <use xlink:href="#E1-MJMAIN-6E" x="283" y="0"></use>
 <use xlink:href="#E1-MJMAIN-74" x="844" y="0"></use>
 <use xlink:href="#E1-MJMAIN-65" x="1238" y="0"></use>
 <use xlink:href="#E1-MJMAIN-72" x="1687" y="0"></use>
 <use xlink:href="#E1-MJMAIN-6C" x="2084" y="0"></use>
 <use xlink:href="#E1-MJMAIN-65" x="2367" y="0"></use>
 <use xlink:href="#E1-MJMAIN-61" x="2816" y="0"></use>
 <use xlink:href="#E1-MJMAIN-76" x="3321" y="0"></use>
 <use xlink:href="#E1-MJMAIN-69" x="3854" y="0"></use>
 <use xlink:href="#E1-MJMAIN-6E" x="4137" y="0"></use>
 <use xlink:href="#E1-MJMAIN-67" x="4698" y="0"></use>
</g>
 <use xlink:href="#E1-MJMAIN-29" x="5597" y="0"></use>
</g>
<g transform="translate(0,-720)">
 <use xlink:href="#E1-MJMAIN-28" x="0" y="0"></use>
<g transform="translate(394,0)">
 <use xlink:href="#E1-MJMAIN-69"></use>
 <use xlink:href="#E1-MJMAIN-6E" x="283" y="0"></use>
 <use xlink:href="#E1-MJMAIN-74" x="844" y="0"></use>
 <use xlink:href="#E1-MJMAIN-65" x="1238" y="0"></use>
 <use xlink:href="#E1-MJMAIN-72" x="1687" y="0"></use>
 <use xlink:href="#E1-MJMAIN-66" x="2084" y="0"></use>
 <use xlink:href="#E1-MJMAIN-61" x="2395" y="0"></use>
 <use xlink:href="#E1-MJMAIN-63" x="2900" y="0"></use>
 <use xlink:href="#E1-MJMAIN-65" x="3349" y="0"></use>
</g>
<g transform="translate(4469,0)">
 <use xlink:href="#E1-MJMAIN-70"></use>
 <use xlink:href="#E1-MJMAIN-61" x="561" y="0"></use>
 <use xlink:href="#E1-MJMAIN-72" x="1066" y="0"></use>
 <use xlink:href="#E1-MJMAIN-61" x="1463" y="0"></use>
 <use xlink:href="#E1-MJMAIN-6C" x="1968" y="0"></use>
 <use xlink:href="#E1-MJMAIN-6C" x="2251" y="0"></use>
 <use xlink:href="#E1-MJMAIN-65" x="2534" y="0"></use>
 <use xlink:href="#E1-MJMAIN-6C" x="2983" y="0"></use>
</g>
 <use xlink:href="#E1-MJMAIN-29" x="7735" y="0"></use>
</g>
<g transform="translate(0,-2180)">
 <use xlink:href="#E1-MJMAIN-28" x="0" y="0"></use>
<g transform="translate(394,0)">
 <use xlink:href="#E1-MJMAIN-68"></use>
 <use xlink:href="#E1-MJMAIN-69" x="561" y="0"></use>
 <use xlink:href="#E1-MJMAIN-64" x="844" y="0"></use>
 <use xlink:href="#E1-MJMAIN-69" x="1405" y="0"></use>
 <use xlink:href="#E1-MJMAIN-6E" x="1688" y="0"></use>
 <use xlink:href="#E1-MJMAIN-67" x="2249" y="0"></use>
</g>
 <use xlink:href="#E1-MJMAIN-29" x="3148" y="0"></use>
</g>
<g transform="translate(0,-3640)">
 <use xlink:href="#E1-MJMAIN-28" x="0" y="0"></use>
<g transform="translate(394,0)">
 <use xlink:href="#E1-MJMAIN-73"></use>
 <use xlink:href="#E1-MJMAIN-65" x="399" y="0"></use>
 <use xlink:href="#E1-MJMAIN-71" x="848" y="0"></use>
 <use xlink:href="#E1-MJMAIN-75" x="1381" y="0"></use>
 <use xlink:href="#E1-MJMAIN-65" x="1942" y="0"></use>
 <use xlink:href="#E1-MJMAIN-6E" x="2391" y="0"></use>
 <use xlink:href="#E1-MJMAIN-74" x="2952" y="0"></use>
 <use xlink:href="#E1-MJMAIN-69" x="3346" y="0"></use>
 <use xlink:href="#E1-MJMAIN-61" x="3629" y="0"></use>
 <use xlink:href="#E1-MJMAIN-6C" x="4134" y="0"></use>
</g>
<g transform="translate(5088,0)">
 <use xlink:href="#E1-MJMAIN-63"></use>
 <use xlink:href="#E1-MJMAIN-6F" x="449" y="0"></use>
 <use xlink:href="#E1-MJMAIN-6D" x="954" y="0"></use>
 <use xlink:href="#E1-MJMAIN-70" x="1792" y="0"></use>
 <use xlink:href="#E1-MJMAIN-6F" x="2353" y="0"></use>
 <use xlink:href="#E1-MJMAIN-73" x="2858" y="0"></use>
 <use xlink:href="#E1-MJMAIN-69" x="3257" y="0"></use>
 <use xlink:href="#E1-MJMAIN-74" x="3540" y="0"></use>
 <use xlink:href="#E1-MJMAIN-69" x="3934" y="0"></use>
 <use xlink:href="#E1-MJMAIN-6F" x="4217" y="0"></use>
 <use xlink:href="#E1-MJMAIN-6E" x="4722" y="0"></use>
</g>
 <use xlink:href="#E1-MJMAIN-29" x="10371" y="0"></use>
</g>
<g transform="translate(0,-5100)">
 <use xlink:href="#E1-MJMAIN-28" x="0" y="0"></use>
<g transform="translate(394,0)">
 <use xlink:href="#E1-MJMAIN-62"></use>
 <use xlink:href="#E1-MJMAIN-6F" x="561" y="0"></use>
 <use xlink:href="#E1-MJMAIN-6F" x="1066" y="0"></use>
 <use xlink:href="#E1-MJMAIN-6C" x="1571" y="0"></use>
 <use xlink:href="#E1-MJMAIN-65" x="1854" y="0"></use>
 <use xlink:href="#E1-MJMAIN-61" x="2303" y="0"></use>
 <use xlink:href="#E1-MJMAIN-6E" x="2808" y="0"></use>
</g>
<g transform="translate(4040,0)">
 <use xlink:href="#E1-MJMAIN-63"></use>
 <use xlink:href="#E1-MJMAIN-6F" x="449" y="0"></use>
 <use xlink:href="#E1-MJMAIN-6E" x="954" y="0"></use>
 <use xlink:href="#E1-MJMAIN-64" x="1515" y="0"></use>
 <use xlink:href="#E1-MJMAIN-69" x="2076" y="0"></use>
 <use xlink:href="#E1-MJMAIN-74" x="2359" y="0"></use>
 <use xlink:href="#E1-MJMAIN-69" x="2753" y="0"></use>
 <use xlink:href="#E1-MJMAIN-6F" x="3036" y="0"></use>
 <use xlink:href="#E1-MJMAIN-6E" x="3541" y="0"></use>
 <use xlink:href="#E1-MJMAIN-61" x="4102" y="0"></use>
 <use xlink:href="#E1-MJMAIN-6C" x="4607" y="0"></use>
</g>
 <use xlink:href="#E1-MJMAIN-29" x="8930" y="0"></use>
</g>
<g transform="translate(0,-6560)">
 <use xlink:href="#E1-MJMAIN-28" x="0" y="0"></use>
<g transform="translate(394,0)">
 <use xlink:href="#E1-MJMAIN-74"></use>
 <use xlink:href="#E1-MJMAIN-69" x="394" y="0"></use>
 <use xlink:href="#E1-MJMAIN-6D" x="677" y="0"></use>
 <use xlink:href="#E1-MJMAIN-65" x="1515" y="0"></use>
 <use xlink:href="#E1-MJMAIN-6F" x="1964" y="0"></use>
 <use xlink:href="#E1-MJMAIN-75" x="2469" y="0"></use>
 <use xlink:href="#E1-MJMAIN-74" x="3030" y="0"></use>
</g>
 <use xlink:href="#E1-MJMAIN-29" x="3818" y="0"></use>
</g>
<g transform="translate(0,-8020)">
 <use xlink:href="#E1-MJMAIN-28" x="0" y="0"></use>
<g transform="translate(394,0)">
 <use xlink:href="#E1-MJMAIN-69"></use>
 <use xlink:href="#E1-MJMAIN-6E" x="283" y="0"></use>
 <use xlink:href="#E1-MJMAIN-74" x="844" y="0"></use>
 <use xlink:href="#E1-MJMAIN-65" x="1238" y="0"></use>
 <use xlink:href="#E1-MJMAIN-72" x="1687" y="0"></use>
 <use xlink:href="#E1-MJMAIN-72" x="2084" y="0"></use>
 <use xlink:href="#E1-MJMAIN-75" x="2481" y="0"></use>
 <use xlink:href="#E1-MJMAIN-70" x="3042" y="0"></use>
 <use xlink:href="#E1-MJMAIN-74" x="3603" y="0"></use>
</g>
 <use xlink:href="#E1-MJMAIN-29" x="4391" y="0"></use>
</g>
</g>
</g>
</g>
</svg>